#N canvas 344 89 463 665 10;
#X obj 125 236 mrpeach/udpsend;
#X obj 125 132 mrpeach/packOSC;
#X obj 125 94 list prepend send;
#X obj 125 113 list trim;
#X msg 74 54 /vibro/now \$1;
#X obj 74 35 tgl 15 0 empty empty empty 17 7 0 10 -262144 -1 -1 0 1
;
#X msg 164 179 disconnect;
#X msg 171 202 connect 127.0.0.1 3001;
#X msg 168 54 /vibro/pulse 50 50 5;
#X obj 121 325 mrpeach/udpreceive 3000;
#X obj 121 353 mrpeach/unpackOSC;
#X obj 121 382 mrpeach/pipelist;
#X obj 152 482 vsl 15 128 0 1 0 0 empty empty empty 0 -9 0 10 -262144
-1 -1 6331 0;
#X obj 152 440 * 0.5;
#X obj 152 460 + 0.5;
#X obj 121 420 unpack s f f f f f f f f f f f f;
#X obj 231 512 print;
#X obj 121 401 route /movuino;
#X connect 1 0 0 0;
#X connect 2 0 3 0;
#X connect 3 0 1 0;
#X connect 4 0 2 0;
#X connect 5 0 4 0;
#X connect 6 0 0 0;
#X connect 7 0 0 0;
#X connect 8 0 2 0;
#X connect 9 0 10 0;
#X connect 10 0 11 0;
#X connect 10 1 11 1;
#X connect 11 0 17 0;
#X connect 13 0 14 0;
#X connect 14 0 12 0;
#X connect 15 2 13 0;
#X connect 17 0 15 0;
